<svg width="15" height="19" viewBox="0 0 15 19" fill="none" xmlns="http://www.w3.org/2000/svg">
<path d="M13.4622 0H1.53772C1.23031 0 0.981079 0.249227 0.981079 0.556641V18.4434C0.981079 18.6685 1.11671 18.8715 1.32471 18.9576C1.39359 18.9862 1.46591 19 1.53761 19C1.68248 19 1.82483 18.9435 1.93134 18.8369L7.50008 13.2683L13.0686 18.8369C13.2278 18.9961 13.4672 19.0438 13.6752 18.9576C13.8832 18.8715 14.0189 18.6685 14.0189 18.4434V0.556641C14.0189 0.249227 13.7696 0 13.4622 0ZM7.50005 11.9244C7.35242 11.9244 7.21085 11.9831 7.10646 12.0875L2.09436 17.0995V1.11328H12.9055V17.0994L7.89366 12.0875C7.78928 11.9831 7.6477 11.9244 7.50005 11.9244Z" fill="black"/>
</svg>
